<svg width="377" height="79" viewBox="0 0 377 79" fill="none" xmlns="http://www.w3.org/2000/svg">
<g filter="url(#filter0_di_463_72)">
<path d="M131.905 20.05C133.771 19.85 135.488 19.7 137.055 19.6C138.655 19.4667 140.138 19.4 141.505 19.4C142.271 21.9 143.155 24.5167 144.155 27.25C145.155 29.9833 146.205 32.7333 147.305 35.5C148.438 38.2667 149.588 40.9333 150.755 43.5C152.488 39.7667 154.138 35.9333 155.705 32C157.305 28.0667 158.871 23.8833 160.405 19.45C162.205 19.45 163.988 19.5 165.755 19.6C167.521 19.7 169.021 19.8333 170.255 20C170.255 21.8333 170.255 24.0167 170.255 26.55C170.288 29.05 170.305 31.75 170.305 34.65C170.338 37.5167 170.371 40.3833 170.405 43.25C170.438 46.1167 170.471 48.8167 170.505 51.35C170.538 53.8833 170.588 56.0667 170.655 57.9C169.888 57.9333 168.955 57.9667 167.855 58C166.755 58.0333 165.605 58.05 164.405 58.05C163.205 58.0833 162.088 58.1 161.055 58.1C161.188 54.7333 161.288 51.3667 161.355 48C161.421 44.6 161.471 41.3 161.505 38.1C161.571 34.9 161.605 31.9333 161.605 29.2C160.205 33.1333 158.755 36.8833 157.255 40.45C155.788 44.0167 154.221 47.5333 152.555 51L144.855 51.45C142.955 47.3167 141.188 43.3667 139.555 39.6C137.921 35.8 136.471 32.2667 135.205 29L136.305 58.1L130.655 57.9C130.755 56.1333 130.855 54.1167 130.955 51.85C131.055 49.5833 131.138 47.2 131.205 44.7C131.305 42.2 131.388 39.7167 131.455 37.25C131.555 34.75 131.638 32.3833 131.705 30.15C131.771 27.8833 131.821 25.8833 131.855 24.15C131.888 22.3833 131.905 21.0167 131.905 20.05ZM184.274 58.25C181.441 58.25 179.124 57.5667 177.324 56.2C175.557 54.8 174.674 52.9833 174.674 50.75C174.674 48.7167 175.407 46.8333 176.874 45.1C178.374 43.3667 180.441 41.9 183.074 40.7C185.707 39.4667 188.724 38.6167 192.124 38.15C190.924 35.2167 189.274 33.75 187.174 33.75C185.907 33.75 184.274 34.2333 182.274 35.2C180.274 36.1667 178.241 37.4333 176.174 39L174.674 34C179.641 31.1667 184.341 29.75 188.774 29.75C192.241 29.75 195.024 30.7 197.124 32.6C199.224 34.4667 200.757 37.4667 201.724 41.6C202.691 45.7 203.174 51.1333 203.174 57.9C202.541 57.9333 201.407 57.9667 199.774 58C198.174 58.0667 196.441 58.1 194.574 58.1C194.574 57.0333 194.557 55.9833 194.524 54.95C191.091 57.15 187.674 58.25 184.274 58.25ZM182.924 50.4C182.924 51.4333 183.324 52.25 184.124 52.85C184.957 53.45 186.057 53.75 187.424 53.75C189.824 53.75 192.141 52.7167 194.374 50.65C194.174 47.1167 193.791 44.1333 193.224 41.7C191.924 41.9667 190.657 42.4 189.424 43C188.224 43.6 187.124 44.3167 186.124 45.15C185.157 45.95 184.374 46.8167 183.774 47.75C183.207 48.65 182.924 49.5333 182.924 50.4ZM210.618 64.5L210.468 60.5C213.168 60.3667 215.418 60.0833 217.218 59.65C219.018 59.2167 220.468 58.5667 221.568 57.7C222.668 56.8 223.502 55.5667 224.068 54C221.902 55.5 219.535 56.25 216.968 56.25C214.835 56.25 212.952 55.7333 211.318 54.7C209.685 53.6667 208.418 52.2333 207.518 50.4C206.618 48.5333 206.168 46.3833 206.168 43.95C206.168 41.3167 206.668 38.9333 207.668 36.8C208.702 34.6333 210.085 32.9167 211.818 31.65C213.552 30.3833 215.468 29.75 217.568 29.75C218.635 29.75 219.752 29.9167 220.918 30.25C222.118 30.5833 223.318 31.0333 224.518 31.6C224.485 31.2 224.452 30.7833 224.418 30.35C225.885 30.2833 227.268 30.2333 228.568 30.2C229.902 30.1667 231.385 30.15 233.018 30.15C233.118 32.9833 233.168 35.5167 233.168 37.75C233.168 42.0833 232.968 45.8 232.568 48.9C232.168 52 231.485 54.5667 230.518 56.6C229.552 58.6 228.202 60.1833 226.468 61.35C224.768 62.5167 222.618 63.3333 220.018 63.8C217.418 64.2667 214.285 64.5 210.618 64.5ZM213.718 42.25C213.718 45.0833 214.285 47.3333 215.418 49C216.552 50.6667 218.068 51.5 219.968 51.5C222.468 51.5 224.185 50.0667 225.118 47.2C225.152 46.4333 225.168 45.6 225.168 44.7C225.168 43.7667 225.152 42.7833 225.118 41.75C225.085 40.7167 225.035 39.55 224.968 38.25C224.335 36.9833 223.468 35.9667 222.368 35.2C221.302 34.4 220.168 34 218.968 34C217.335 34 216.052 34.7333 215.118 36.2C214.185 37.6667 213.718 39.6833 213.718 42.25ZM238.224 26.75V20H246.724V26.75H238.224ZM238.424 58.1C238.391 57 238.357 55.5167 238.324 53.65C238.291 51.75 238.257 49.5833 238.224 47.15C238.224 44.6833 238.207 42.05 238.174 39.25C238.174 36.45 238.174 33.5833 238.174 30.65C239.674 30.65 241.241 30.6667 242.874 30.7C244.541 30.7333 245.841 30.7833 246.774 30.85C246.774 33.2833 246.757 35.8333 246.724 38.5C246.724 41.1667 246.707 43.7667 246.674 46.3C246.674 48.8 246.657 51.0667 246.624 53.1C246.591 55.1333 246.557 56.7333 246.524 57.9C244.991 57.9667 243.524 58.0167 242.124 58.05C240.724 58.0833 239.491 58.1 238.424 58.1ZM265.097 58.25C263.73 58.25 262.18 58.15 260.447 57.95C258.714 57.7167 256.997 57.4333 255.297 57.1C253.597 56.7333 252.097 56.35 250.797 55.95L252.997 49.9C254.264 50.6333 255.664 51.3333 257.197 52C258.764 52.6333 260.297 53.15 261.797 53.55C263.297 53.95 264.58 54.15 265.647 54.15C267.08 54.15 268.13 53.8333 268.797 53.2C269.464 52.5333 269.797 51.8333 269.797 51.1C269.797 50.2333 269.43 49.5167 268.697 48.95C267.964 48.35 266.997 47.8333 265.797 47.4C264.63 46.9333 263.364 46.5 261.997 46.1C260.764 45.7333 259.53 45.3333 258.297 44.9C257.064 44.4667 255.93 43.9667 254.897 43.4C253.897 42.8 253.08 42.0833 252.447 41.25C251.847 40.4167 251.547 39.4167 251.547 38.25C251.547 36.75 252.08 35.3667 253.147 34.1C254.214 32.8 255.73 31.75 257.697 30.95C259.664 30.15 261.997 29.75 264.697 29.75C266.897 29.75 269.114 30.0333 271.347 30.6C273.614 31.1667 275.68 31.9667 277.547 33L274.747 37.75C272.914 36.5833 271.13 35.6333 269.397 34.9C267.697 34.1333 266.08 33.75 264.547 33.75C263.08 33.75 261.964 34.0667 261.197 34.7C260.43 35.3333 260.047 35.9833 260.047 36.65C260.047 37.2833 260.347 37.8167 260.947 38.25C261.547 38.65 262.347 39 263.347 39.3C264.38 39.6 265.48 39.9 266.647 40.2C267.947 40.5 269.28 40.8667 270.647 41.3C272.014 41.7 273.28 42.2167 274.447 42.85C275.614 43.4833 276.547 44.3 277.247 45.3C277.947 46.2667 278.297 47.4833 278.297 48.95C278.297 50.75 277.73 52.35 276.597 53.75C275.464 55.15 273.897 56.25 271.897 57.05C269.93 57.85 267.664 58.25 265.097 58.25ZM285.751 58.1C285.718 57.4 285.684 56.2833 285.651 54.75C285.651 53.1833 285.634 51.3167 285.601 49.15C285.601 46.9833 285.584 44.6333 285.551 42.1C285.551 39.5667 285.551 36.9667 285.551 34.3H280.101L279.801 29.7H285.501C285.501 26.3333 285.501 23.15 285.501 20.15C286.734 20.15 288.168 20.1667 289.801 20.2C291.468 20.2333 292.901 20.2833 294.101 20.35C294.101 23.2167 294.101 26.3333 294.101 29.7H299.801L299.501 34.3H294.051C294.051 36.9 294.034 39.4667 294.001 42C294.001 44.5 293.984 46.8167 293.951 48.95C293.951 51.0833 293.934 52.9333 293.901 54.5C293.901 56.0667 293.884 57.2 293.851 57.9C292.718 57.9667 291.468 58.0167 290.101 58.05C288.734 58.0833 287.284 58.1 285.751 58.1ZM314.559 58.25C311.859 58.25 309.426 57.6333 307.259 56.4C305.126 55.1333 303.426 53.4333 302.159 51.3C300.926 49.1333 300.309 46.6833 300.309 43.95C300.309 41.2167 300.909 38.7833 302.109 36.65C303.342 34.5167 305.009 32.8333 307.109 31.6C309.242 30.3667 311.659 29.75 314.359 29.75C316.892 29.75 319.159 30.3167 321.159 31.45C323.192 32.55 324.826 34.1 326.059 36.1C327.326 38.1 328.076 40.45 328.309 43.15L308.459 46.85C309.092 49.0167 310.092 50.7833 311.459 52.15C312.826 53.4833 314.359 54.15 316.059 54.15C317.626 54.15 319.176 53.6167 320.709 52.55C322.242 51.45 323.426 50.05 324.259 48.35L327.809 51.35C326.176 53.55 324.209 55.25 321.909 56.45C319.609 57.65 317.159 58.25 314.559 58.25ZM307.809 41.95C307.809 42.15 307.809 42.3167 307.809 42.45L319.459 40.85C319.226 38.7167 318.542 37 317.409 35.7C316.276 34.4 314.892 33.75 313.259 33.75C311.559 33.75 310.226 34.4833 309.259 35.95C308.292 37.3833 307.809 39.3833 307.809 41.95ZM339.665 58.1C338.498 58.1 337.165 58.0667 335.665 58C334.198 57.9667 332.831 57.9333 331.565 57.9C331.531 56.9 331.498 55.4667 331.465 53.6C331.431 51.7333 331.398 49.5667 331.365 47.1C331.365 44.6 331.348 41.9333 331.315 39.1C331.315 36.2333 331.315 33.3167 331.315 30.35C332.048 30.3167 332.948 30.2833 334.015 30.25C335.081 30.2167 336.148 30.2 337.215 30.2C338.281 30.1667 339.181 30.15 339.915 30.15C339.915 31.1167 339.915 32.0833 339.915 33.05C341.215 32.0167 342.548 31.2167 343.915 30.65C345.315 30.05 346.665 29.75 347.965 29.75C349.665 29.75 351.215 30.2167 352.615 31.15C354.015 32.05 355.148 33.2833 356.015 34.85C356.915 36.4167 357.431 38.1833 357.565 40.15C356.231 40.5833 354.898 40.9667 353.565 41.3C352.231 41.6333 350.965 41.9 349.765 42.1C349.765 40.6 349.565 39.2167 349.165 37.95C348.798 36.6833 348.298 35.6667 347.665 34.9C347.031 34.1333 346.331 33.75 345.565 33.75C344.665 33.75 343.665 34.3 342.565 35.4C341.465 36.5 340.581 37.85 339.915 39.45C339.881 43.6833 339.848 47.4667 339.815 50.8C339.781 54.1 339.731 56.5333 339.665 58.1Z" fill="#0D0D0D"/>
</g>
<g filter="url(#filter1_di_463_72)">
<path d="M85.905 58.8545V46.373C85.905 45.6558 85.1723 45.1718 84.5126 45.4532L60.3281 55.7704C60.204 55.8234 60.0683 55.8525 59.9336 55.8449C57.0874 55.6843 57.9373 52.1728 60.1401 51.5762L109.213 31.0949C110.022 30.7574 110.036 29.6172 109.237 29.2593L59.9019 7.18167C59.6435 7.06602 59.3481 7.06534 59.0892 7.17981L9.25539 29.2071C8.43396 29.5702 8.4704 30.748 9.3127 31.0596L19.5296 34.8394C19.9328 34.9886 20.1955 35.3787 20.1822 35.8083L19.8978 44.9736C19.8881 45.2862 19.7254 45.5699 19.4959 45.7824C18.1854 46.9958 18.6469 48.467 19.2446 49.3446C19.4251 49.6095 19.523 49.9303 19.4599 50.2446L17.2244 61.3706C17.1 61.9896 17.5734 62.5676 18.2048 62.5676H23.8443C24.4658 62.5676 24.9368 62.0066 24.8292 61.3944L22.8438 50.1017C22.8032 49.8708 22.8489 49.6331 22.9535 49.4233C23.9214 47.4829 23.1013 46.3312 22.206 45.785C21.8136 45.5456 21.5037 45.1473 21.5194 44.688L21.7624 37.5464C21.787 36.8223 22.5496 36.3639 23.2006 36.6818L31.8817 40.9214C32.225 41.0891 32.4428 41.4378 32.4428 41.82V58.8483C32.4428 59.2517 32.6852 59.6157 33.0575 59.7711L59.1059 70.6483C59.3553 70.7524 59.6361 70.7512 59.8846 70.6449L85.2983 59.774C85.6663 59.6165 85.905 59.2548 85.905 58.8545Z" fill="#9747FF"/>
</g>
<defs>
<filter id="filter0_di_463_72" x="122.655" y="19.4" width="234.91" height="53.1" filterUnits="userSpaceOnUse" color-interpolation-filters="sRGB">
<feFlood flood-opacity="0" result="BackgroundImageFix"/>
<feColorMatrix in="SourceAlpha" type="matrix" values="0 0 0 0 0 0 0 0 0 0 0 0 0 0 0 0 0 0 127 0" result="hardAlpha"/>
<feOffset dx="-4" dy="4"/>
<feGaussianBlur stdDeviation="2"/>
<feComposite in2="hardAlpha" operator="out"/>
<feColorMatrix type="matrix" values="0 0 0 0 0 0 0 0 0 0 0 0 0 0 0 0 0 0 0.25 0"/>
<feBlend mode="normal" in2="BackgroundImageFix" result="effect1_dropShadow_463_72"/>
<feBlend mode="normal" in="SourceGraphic" in2="effect1_dropShadow_463_72" result="shape"/>
<feColorMatrix in="SourceAlpha" type="matrix" values="0 0 0 0 0 0 0 0 0 0 0 0 0 0 0 0 0 0 127 0" result="hardAlpha"/>
<feOffset dy="5"/>
<feGaussianBlur stdDeviation="2"/>
<feComposite in2="hardAlpha" operator="arithmetic" k2="-1" k3="1"/>
<feColorMatrix type="matrix" values="0 0 0 0 0 0 0 0 0 0 0 0 0 0 0 0 0 0 0.25 0"/>
<feBlend mode="normal" in2="shape" result="effect2_innerShadow_463_72"/>
</filter>
<filter id="filter1_di_463_72" x="0.659668" y="7.09445" width="109.168" height="71.631" filterUnits="userSpaceOnUse" color-interpolation-filters="sRGB">
<feFlood flood-opacity="0" result="BackgroundImageFix"/>
<feColorMatrix in="SourceAlpha" type="matrix" values="0 0 0 0 0 0 0 0 0 0 0 0 0 0 0 0 0 0 127 0" result="hardAlpha"/>
<feOffset dx="-4" dy="4"/>
<feGaussianBlur stdDeviation="2"/>
<feComposite in2="hardAlpha" operator="out"/>
<feColorMatrix type="matrix" values="0 0 0 0 0 0 0 0 0 0 0 0 0 0 0 0 0 0 0.25 0"/>
<feBlend mode="normal" in2="BackgroundImageFix" result="effect1_dropShadow_463_72"/>
<feBlend mode="normal" in="SourceGraphic" in2="effect1_dropShadow_463_72" result="shape"/>
<feColorMatrix in="SourceAlpha" type="matrix" values="0 0 0 0 0 0 0 0 0 0 0 0 0 0 0 0 0 0 127 0" result="hardAlpha"/>
<feOffset dx="-4" dy="4"/>
<feGaussianBlur stdDeviation="2"/>
<feComposite in2="hardAlpha" operator="arithmetic" k2="-1" k3="1"/>
<feColorMatrix type="matrix" values="0 0 0 0 0 0 0 0 0 0 0 0 0 0 0 0 0 0 0.5 0"/>
<feBlend mode="normal" in2="shape" result="effect2_innerShadow_463_72"/>
</filter>
</defs>
</svg>
