<svg width="338" height="72" viewBox="0 0 338 72" fill="none" xmlns="http://www.w3.org/2000/svg">
<g filter="url(#filter0_di_463_72)">
<path d="M145.408 46.6C145.041 47.7333 144.291 48.3 143.158 48.3H141.208C140.008 48.3 139.241 47.75 138.908 46.65L135.758 36.65C135.625 36.2833 135.441 36 135.208 35.8C135.008 35.6 134.791 35.5 134.558 35.5C134.258 35.5 134.008 35.6333 133.808 35.9C133.608 36.1667 133.508 36.5333 133.508 37V49.4C133.508 50.7333 132.841 51.4 131.508 51.4H131.008C129.675 51.4 129.008 50.7333 129.008 49.4V17.55C129.008 16.2167 129.675 15.55 131.008 15.55H131.758C132.925 15.55 133.675 16.1 134.008 17.2L140.808 38.95C140.941 39.4167 141.125 39.7667 141.358 40C141.591 40.2333 141.825 40.35 142.058 40.35C142.325 40.35 142.575 40.2333 142.808 40C143.041 39.7333 143.225 39.3667 143.358 38.9L149.758 17.25C150.125 16.1167 150.875 15.55 152.008 15.55H152.858C154.191 15.55 154.858 16.2167 154.858 17.55V49.4C154.858 50.7333 154.191 51.4 152.858 51.4H152.358C151.025 51.4 150.358 50.7333 150.358 49.4V37.55C150.358 37.0833 150.258 36.7333 150.058 36.5C149.858 36.2333 149.608 36.1 149.308 36.1C148.775 36.1 148.391 36.4667 148.158 37.2L145.408 46.6ZM164.967 51.4C164.001 51.4 163.184 51.0667 162.517 50.4L160.867 48.75C160.201 48.0833 159.867 47.2667 159.867 46.3V40.5C159.867 40 159.951 39.5667 160.117 39.2C160.284 38.8 160.551 38.4167 160.917 38.05L162.517 36.45C163.184 35.7833 164.001 35.45 164.967 35.45H169.717C171.051 35.45 171.717 34.7833 171.717 33.45V33.3C171.717 31.9667 171.051 31.3 169.717 31.3H162.017C160.684 31.3 160.017 30.6333 160.017 29.3V28.75C160.017 27.4167 160.684 26.75 162.017 26.75H171.167C172.134 26.75 172.951 27.0833 173.617 27.75L175.267 29.4C175.934 30.0667 176.267 30.8833 176.267 31.85V49.4C176.267 50.7333 175.601 51.4 174.267 51.4H164.967ZM171.717 41.55C171.717 40.2167 171.051 39.55 169.717 39.55H166.417C165.084 39.55 164.417 40.2167 164.417 41.55V45.3C164.417 46.6333 165.084 47.3 166.417 47.3H169.717C171.051 47.3 171.717 46.6333 171.717 45.3V41.55ZM191.541 51.4C192.875 51.4 193.541 50.7333 193.541 49.4V48.25C193.541 46.9167 192.875 46.25 191.541 46.25H186.891C185.891 46.25 185.058 45.9167 184.391 45.25L182.791 43.65C182.125 42.9833 181.791 42.1667 181.791 41.2V31.85C181.791 30.8833 182.125 30.0667 182.791 29.4L184.441 27.75C185.108 27.0833 185.925 26.75 186.891 26.75H196.091C197.425 26.75 198.091 27.4167 198.091 28.75V50.85C198.091 51.35 198.008 51.7833 197.841 52.15C197.675 52.55 197.408 52.9333 197.041 53.3L195.441 54.9C194.775 55.5667 193.958 55.9 192.991 55.9H184.241C182.908 55.9 182.241 55.2333 182.241 53.9V53.4C182.241 52.0667 182.908 51.4 184.241 51.4H191.541ZM186.341 39.7C186.341 41.0333 187.008 41.7 188.341 41.7H191.541C192.875 41.7 193.541 41.0333 193.541 39.7V33.3C193.541 31.9667 192.875 31.3 191.541 31.3H188.341C187.008 31.3 186.341 31.9667 186.341 33.3V39.7ZM204.819 20.15C205.319 19.65 205.835 19.4 206.369 19.4C206.902 19.4 207.419 19.65 207.919 20.15C208.419 20.65 208.669 21.1667 208.669 21.7C208.669 22.2333 208.419 22.75 207.919 23.25C207.419 23.75 206.902 24 206.369 24C205.835 24 205.319 23.75 204.819 23.25C204.319 22.75 204.069 22.2333 204.069 21.7C204.069 21.1667 204.319 20.65 204.819 20.15ZM204.119 28.75C204.119 27.4167 204.785 26.75 206.119 26.75H206.619C207.952 26.75 208.619 27.4167 208.619 28.75V49.45C208.619 50.7833 207.952 51.45 206.619 51.45H206.119C204.785 51.45 204.119 50.7833 204.119 49.45V28.75ZM227.914 33.9C227.281 33.9 226.781 33.7833 226.414 33.55C226.081 33.3167 225.914 32.9833 225.914 32.55C225.914 32.15 225.731 31.8333 225.364 31.6C225.031 31.3667 224.548 31.25 223.914 31.25H220.714C219.381 31.25 218.714 31.9167 218.714 33.25V35.3C218.714 36.6333 219.381 37.3 220.714 37.3H225.364C226.331 37.3 227.148 37.6333 227.814 38.3L229.464 39.95C230.131 40.6167 230.464 41.4333 230.464 42.4V46.35C230.464 47.3167 230.131 48.1333 229.464 48.8L227.814 50.45C227.148 51.1167 226.331 51.45 225.364 51.45H219.264C218.298 51.45 217.481 51.1167 216.814 50.45L215.164 48.8C214.498 48.1333 214.164 47.3167 214.164 46.35V46.3C214.164 44.9667 214.831 44.3 216.164 44.3H216.714C217.348 44.3 217.831 44.4167 218.164 44.65C218.531 44.8833 218.714 45.2 218.714 45.6C218.714 46 218.881 46.3167 219.214 46.55C219.581 46.7833 220.081 46.9 220.714 46.9H223.914C225.248 46.9 225.914 46.2333 225.914 44.9V43.4C225.914 42.0667 225.248 41.4 223.914 41.4H219.214C218.714 41.4 218.281 41.3333 217.914 41.2C217.548 41.0333 217.164 40.7833 216.764 40.45L215.264 39.15C214.864 38.8167 214.581 38.4667 214.414 38.1C214.248 37.7 214.164 37.2333 214.164 36.7V31.8C214.164 31.3 214.248 30.8667 214.414 30.5C214.581 30.1 214.848 29.7167 215.214 29.35L216.814 27.75C217.481 27.0833 218.298 26.75 219.264 26.75H225.364C226.364 26.75 227.198 27.0833 227.864 27.75L229.464 29.35C230.131 30.0167 230.464 30.8333 230.464 31.8V31.9C230.464 33.2333 229.798 33.9 228.464 33.9H227.914ZM246.953 46.9C248.287 46.9 248.953 47.5667 248.953 48.9V49.45C248.953 50.7833 248.287 51.45 246.953 51.45H243.503C242.537 51.45 241.72 51.1167 241.053 50.45L239.403 48.8C238.737 48.1333 238.403 47.3167 238.403 46.35V33.25C238.403 32.6167 238.237 32.1333 237.903 31.8C237.57 31.4333 237.087 31.25 236.453 31.25C235.12 31.25 234.453 30.5833 234.453 29.25V28.75C234.453 28.1167 234.62 27.6333 234.953 27.3C235.32 26.9333 235.82 26.75 236.453 26.75C237.087 26.75 237.57 26.5833 237.903 26.25C238.237 25.8833 238.403 25.3833 238.403 24.75V22.95C238.403 21.6167 239.07 20.95 240.403 20.95H240.953C242.287 20.95 242.953 21.6167 242.953 22.95V24.75C242.953 26.0833 243.62 26.75 244.953 26.75H246.953C248.287 26.75 248.953 27.4167 248.953 28.75V29.25C248.953 30.5833 248.287 31.25 246.953 31.25H244.953C243.62 31.25 242.953 31.9167 242.953 33.25V44.9C242.953 46.2333 243.62 46.9 244.953 46.9H246.953ZM268.696 40.15C268.696 41.4833 268.029 42.15 266.696 42.15H258.996C257.662 42.15 256.996 42.8167 256.996 44.15V44.85C256.996 46.1833 257.662 46.85 258.996 46.85H266.696C268.029 46.85 268.696 47.5167 268.696 48.85V49.4C268.696 50.7333 268.029 51.4 266.696 51.4H257.496C256.529 51.4 255.712 51.05 255.046 50.35L253.446 48.75C252.779 48.0833 252.446 47.2667 252.446 46.3V31.8C252.446 30.8333 252.779 30.0167 253.446 29.35L255.046 27.75C255.712 27.0833 256.529 26.75 257.496 26.75H263.646C264.612 26.75 265.429 27.0833 266.096 27.75L267.696 29.35C268.362 30.0167 268.696 30.8333 268.696 31.8V40.15ZM256.996 36.15C256.996 37.4833 257.662 38.15 258.996 38.15H262.146C263.479 38.15 264.146 37.4833 264.146 36.15V33.25C264.146 31.9167 263.479 31.25 262.146 31.25H258.996C257.662 31.25 256.996 31.9167 256.996 33.25V36.15ZM278.736 49.4C278.736 50.7333 278.069 51.4 276.736 51.4H276.186C274.853 51.4 274.186 50.7333 274.186 49.4V31.85C274.186 30.8833 274.519 30.0667 275.186 29.4L276.836 27.75C277.503 27.0833 278.319 26.75 279.286 26.75H280.186C281.519 26.75 282.186 27.4167 282.186 28.75V29.3C282.186 30.6333 281.619 31.3 280.486 31.3C279.919 31.3 279.486 31.4833 279.186 31.85C278.886 32.1833 278.736 32.6667 278.736 33.3V49.4Z" fill="#0D0D0D"/>
</g>
<g filter="url(#filter1_di_463_72)">
<path d="M86.905 52.5144V37.8592L61.1401 48.8506C58.0483 48.8506 58.8857 45.1868 61.1401 44.5762L112.348 23.2041L60.496 0L8 23.2041L21.2045 28.0891L20.8824 38.4699C18.8213 39.9354 19.8089 41.9301 20.5604 42.7443L17.9839 55.5676H26.0354L23.781 42.7443C25.3269 40.0575 23.5663 38.7752 22.4928 38.4699L22.8148 29.0051L33.4428 34.1954V52.5144L60.496 63.8111L86.905 52.5144Z" fill="#9747FF"/>
</g>
<defs>
<filter id="filter0_di_463_72" x="121.008" y="15.55" width="161.178" height="48.35" filterUnits="userSpaceOnUse" color-interpolation-filters="sRGB">
<feFlood flood-opacity="0" result="BackgroundImageFix"/>
<feColorMatrix in="SourceAlpha" type="matrix" values="0 0 0 0 0 0 0 0 0 0 0 0 0 0 0 0 0 0 127 0" result="hardAlpha"/>
<feOffset dx="-4" dy="4"/>
<feGaussianBlur stdDeviation="2"/>
<feComposite in2="hardAlpha" operator="out"/>
<feColorMatrix type="matrix" values="0 0 0 0 0 0 0 0 0 0 0 0 0 0 0 0 0 0 0.25 0"/>
<feBlend mode="normal" in2="BackgroundImageFix" result="effect1_dropShadow_463_72"/>
<feBlend mode="normal" in="SourceGraphic" in2="effect1_dropShadow_463_72" result="shape"/>
<feColorMatrix in="SourceAlpha" type="matrix" values="0 0 0 0 0 0 0 0 0 0 0 0 0 0 0 0 0 0 127 0" result="hardAlpha"/>
<feOffset dy="5"/>
<feGaussianBlur stdDeviation="2"/>
<feComposite in2="hardAlpha" operator="arithmetic" k2="-1" k3="1"/>
<feColorMatrix type="matrix" values="0 0 0 0 0 0 0 0 0 0 0 0 0 0 0 0 0 0 0.25 0"/>
<feBlend mode="normal" in2="shape" result="effect2_innerShadow_463_72"/>
</filter>
<filter id="filter1_di_463_72" x="0" y="0" width="112.348" height="71.8111" filterUnits="userSpaceOnUse" color-interpolation-filters="sRGB">
<feFlood flood-opacity="0" result="BackgroundImageFix"/>
<feColorMatrix in="SourceAlpha" type="matrix" values="0 0 0 0 0 0 0 0 0 0 0 0 0 0 0 0 0 0 127 0" result="hardAlpha"/>
<feOffset dx="-4" dy="4"/>
<feGaussianBlur stdDeviation="2"/>
<feComposite in2="hardAlpha" operator="out"/>
<feColorMatrix type="matrix" values="0 0 0 0 0 0 0 0 0 0 0 0 0 0 0 0 0 0 0.25 0"/>
<feBlend mode="normal" in2="BackgroundImageFix" result="effect1_dropShadow_463_72"/>
<feBlend mode="normal" in="SourceGraphic" in2="effect1_dropShadow_463_72" result="shape"/>
<feColorMatrix in="SourceAlpha" type="matrix" values="0 0 0 0 0 0 0 0 0 0 0 0 0 0 0 0 0 0 127 0" result="hardAlpha"/>
<feOffset dx="-4" dy="4"/>
<feGaussianBlur stdDeviation="2"/>
<feComposite in2="hardAlpha" operator="arithmetic" k2="-1" k3="1"/>
<feColorMatrix type="matrix" values="0 0 0 0 0 0 0 0 0 0 0 0 0 0 0 0 0 0 0.5 0"/>
<feBlend mode="normal" in2="shape" result="effect2_innerShadow_463_72"/>
</filter>
</defs>
</svg>
