<svg width="129" height="55" viewBox="0 0 129 55" fill="none" xmlns="http://www.w3.org/2000/svg">
<path d="M31.7009 9.83824V31.1544M31.7009 37.7132V53.8369C29.0317 54.3136 26.6119 53.803 24.5956 52.8943M31.7009 37.7132H35.2536H28.1482M31.7009 37.7132V31.1544M0 37.7132H5.46568M5.46568 37.7132L3.27941 34.1605M5.46568 37.7132H10.9314M10.9314 37.7132L8.74509 40.7193M10.9314 37.7132H21.3161M24.5956 37.7132L19.1299 48.6446C20.0546 49.8775 21.9876 51.719 24.5956 52.8943M24.5956 37.7132H21.3161M24.5956 37.7132H25.6887M24.5956 52.8943L28.1482 37.7132M28.1482 37.7132H25.6887M21.3161 37.7132C18.5893 36.7871 14.5839 34.257 12.2048 29.788C11.1863 27.8747 10.8525 25.6061 10.6581 22.9559C10.6581 20.7696 10.6581 18.0368 11.7504 15.8505M25.6887 37.7132C22.2271 35.7091 15.6319 29.624 16.9436 21.3162M31.7009 31.1544C28.6948 31.1544 22.7372 29.2961 22.9559 21.8627M33.8872 4.37256C28.4215 4.37256 23.2291 9.83824 21.3162 12.5711C19.4943 9.83824 14.2654 4.37256 7.92524 4.37256" stroke="#F5F5F5" stroke-width="1.6397"/>
<circle cx="21.3162" cy="11.2046" r="10.3848" stroke="#F5F5F5" stroke-width="1.6397"/>
<path d="M59.7581 10.0966C59.7581 9.80512 59.9039 9.65937 60.1954 9.65937H61.5946C61.8861 9.65937 62.0319 9.80512 62.0319 10.0966V39.8299C62.0319 40.1214 61.8861 40.2672 61.5946 40.2672H59.8893C59.6561 40.2672 59.4958 40.1506 59.4083 39.9174L50.0948 15.4311C50.0657 15.3437 50.022 15.3145 49.9637 15.3437C49.9054 15.3437 49.8762 15.3874 49.8762 15.4749L49.9199 39.8299C49.9199 40.1214 49.7742 40.2672 49.4827 40.2672H48.0397C47.7482 40.2672 47.6025 40.1214 47.6025 39.8299V10.0966C47.6025 9.80512 47.7482 9.65937 48.0397 9.65937H49.7013C49.9345 9.65937 50.0948 9.77597 50.1823 10.0092L59.5395 34.3642C59.5687 34.4517 59.6124 34.4954 59.6707 34.4954C59.729 34.4663 59.7581 34.408 59.7581 34.3205V10.0966Z" fill="#F5F5F5"/>
<path d="M75.3367 40.617C73.2087 40.617 71.4743 39.9465 70.1334 38.6056C68.8216 37.2355 68.1657 35.4574 68.1657 33.2711V16.6992C68.1657 14.4837 68.8216 12.7056 70.1334 11.3647C71.4451 9.9946 73.1796 9.30957 75.3367 9.30957C77.4938 9.30957 79.2428 9.9946 80.5838 11.3647C81.9247 12.7056 82.5951 14.4837 82.5951 16.6992V33.2711C82.5951 35.4574 81.9247 37.2355 80.5838 38.6056C79.2428 39.9465 77.4938 40.617 75.3367 40.617ZM75.3367 38.5619C76.7942 38.5619 77.9748 38.0809 78.8785 37.1189C79.8113 36.157 80.2777 34.9035 80.2777 33.3586V16.6117C80.2777 15.0668 79.8113 13.8133 78.8785 12.8513C77.9748 11.8602 76.7942 11.3647 75.3367 11.3647C73.9083 11.3647 72.7423 11.8602 71.8387 12.8513C70.935 13.8133 70.4832 15.0668 70.4832 16.6117V33.3586C70.4832 34.9035 70.935 36.157 71.8387 37.1189C72.7423 38.0809 73.9083 38.5619 75.3367 38.5619Z" fill="#F5F5F5"/>
<path d="M92.6626 40.2672C92.4002 40.2672 92.2399 40.136 92.1816 39.8736L86.4535 10.1404V10.0529C86.4535 9.79055 86.5847 9.65937 86.8471 9.65937H88.3775C88.669 9.65937 88.8293 9.79055 88.8584 10.0529L93.3622 34.8452C93.3913 34.9035 93.4205 34.9327 93.4496 34.9327C93.4788 34.9327 93.5079 34.9035 93.5371 34.8452L97.3412 10.0529C97.3703 9.79055 97.5161 9.65937 97.7784 9.65937H99.1339C99.3963 9.65937 99.542 9.79055 99.5712 10.0529L103.594 34.8452C103.623 34.9035 103.652 34.9327 103.681 34.9327C103.711 34.9327 103.74 34.9035 103.769 34.8452L107.879 10.0529C107.937 9.79055 108.083 9.65937 108.316 9.65937H109.847C109.992 9.65937 110.094 9.7031 110.153 9.79055C110.24 9.878 110.269 9.9946 110.24 10.1404L104.818 39.8736C104.789 40.136 104.629 40.2672 104.337 40.2672H102.938C102.705 40.2672 102.559 40.136 102.501 39.8736L98.5655 15.1251C98.5363 15.0668 98.5072 15.0376 98.478 15.0376C98.4489 15.0376 98.4197 15.0668 98.3906 15.1251L94.499 39.8736C94.4699 40.136 94.3241 40.2672 94.0618 40.2672H92.6626Z" fill="#F5F5F5"/>
<path d="M115.507 40.2672C115.215 40.2672 115.069 40.1214 115.069 39.8299V10.0966C115.069 9.80512 115.215 9.65937 115.507 9.65937H116.95C117.241 9.65937 117.387 9.80512 117.387 10.0966V38.0372C117.387 38.1538 117.445 38.2121 117.562 38.2121H127.794C128.085 38.2121 128.231 38.3578 128.231 38.6493V39.8299C128.231 40.1214 128.085 40.2672 127.794 40.2672H115.507Z" fill="#F5F5F5"/>
</svg>
